<svg width="171" height="178" viewBox="0 0 171 178" fill="none" xmlns="http://www.w3.org/2000/svg">
<path d="M88 150C129.421 150 163 116.421 163 75C163 33.5786 129.421 0 88 0C46.5786 0 13 33.5786 13 75C13 116.421 46.5786 150 88 150Z" fill="#75CC33"/>
<path fill-rule="evenodd" clip-rule="evenodd" d="M88 26C65.9086 26 48 43.9086 48 66C48 87.0822 64.3098 104.355 85 105.889V89.5312C84.9694 89.5035 84.9394 89.4749 84.9099 89.4454L70.7678 75.3033C69.7915 74.327 69.7915 72.7441 70.7678 71.7678C71.7441 70.7915 73.327 70.7915 74.3033 71.7678L85 82.4645V68.5312C84.9694 68.5035 84.9394 68.4749 84.9099 68.4454L70.7678 54.3033C69.7915 53.327 69.7915 51.7441 70.7678 50.7678C71.7441 49.7915 73.327 49.7915 74.3033 50.7678L85 61.4645V52.5C85 51.1193 86.1193 50 87.5 50C88.8807 50 90 51.1193 90 52.5V75.4065L104.431 65.3018C105.562 64.5099 107.121 64.7848 107.913 65.9158C108.705 67.0468 108.43 68.6056 107.299 69.3976L90.9158 80.8691C90.6313 81.0683 90.3197 81.2001 90 81.2676V105.951C111.162 104.909 128 87.4207 128 66C128 43.9086 110.091 26 88 26ZM43 66C43 89.8447 61.5459 109.358 85 110.902V147.5C85 148.881 86.1193 150 87.5 150C88.8807 150 90 148.881 90 147.5V110.956C113.925 109.91 133 90.1826 133 66C133 41.1472 112.853 21 88 21C63.1472 21 43 41.1472 43 66Z" fill="white"/>
<path d="M85 105.889L84.963 106.388L85.5 106.428V105.889H85ZM85 89.5312H85.5V89.3096L85.3358 89.1608L85 89.5312ZM84.9099 89.4454L84.5564 89.799L84.5564 89.799L84.9099 89.4454ZM70.7678 75.3033L71.1214 74.9498L71.1214 74.9498L70.7678 75.3033ZM70.7678 71.7678L70.4143 71.4143L70.4143 71.4143L70.7678 71.7678ZM74.3033 71.7678L74.6569 71.4143L74.6569 71.4143L74.3033 71.7678ZM85 82.4645L84.6464 82.8181L85.5 83.6716V82.4645H85ZM85 68.5312H85.5V68.3096L85.3358 68.1608L85 68.5312ZM84.9099 68.4454L84.5564 68.799L84.5564 68.799L84.9099 68.4454ZM70.7678 54.3033L71.1214 53.9498L71.1214 53.9498L70.7678 54.3033ZM70.7678 50.7678L71.1214 51.1214L71.1214 51.1214L70.7678 50.7678ZM85 61.4645L84.6464 61.8181L85.5 62.6716V61.4645H85ZM90 75.4065H89.5V76.367L90.2868 75.8161L90 75.4065ZM104.431 65.3018L104.144 64.8922L104.144 64.8922L104.431 65.3018ZM107.913 65.9158L107.503 66.2026L107.503 66.2026L107.913 65.9158ZM107.299 69.3976L107.586 69.8072L107.586 69.8072L107.299 69.3976ZM90.9158 80.8691L90.629 80.4595L90.629 80.4595L90.9158 80.8691ZM90 81.2676L89.8966 80.7784L89.5 80.8623V81.2676H90ZM90 105.951H89.5V106.476L90.0246 106.45L90 105.951ZM85 110.902H85.5V110.433L85.0328 110.403L85 110.902ZM90 110.956L89.9782 110.457L89.5 110.478V110.956H90ZM48.5 66C48.5 44.1848 66.1848 26.5 88 26.5V25.5C65.6325 25.5 47.5 43.6325 47.5 66H48.5ZM85.037 105.391C64.6059 103.876 48.5 86.8185 48.5 66H47.5C47.5 87.346 64.0137 104.835 84.963 106.388L85.037 105.391ZM84.5 89.5312V105.889H85.5V89.5312H84.5ZM84.5564 89.799C84.5916 89.8342 84.6275 89.8684 84.6642 89.9016L85.3358 89.1608C85.3113 89.1386 85.2872 89.1156 85.2634 89.0918L84.5564 89.799ZM70.4143 75.6569L84.5564 89.799L85.2635 89.0919L71.1214 74.9498L70.4143 75.6569ZM70.4143 71.4143C69.2427 72.5858 69.2427 74.4853 70.4143 75.6569L71.1214 74.9498C70.3403 74.1687 70.3403 72.9024 71.1214 72.1214L70.4143 71.4143ZM74.6569 71.4143C73.4853 70.2427 71.5858 70.2427 70.4143 71.4143L71.1214 72.1214C71.9024 71.3403 73.1687 71.3403 73.9498 72.1214L74.6569 71.4143ZM85.3536 82.1109L74.6569 71.4143L73.9498 72.1214L84.6464 82.8181L85.3536 82.1109ZM84.5 68.5312V82.4645H85.5V68.5312H84.5ZM84.5564 68.799C84.5916 68.8342 84.6276 68.8684 84.6642 68.9016L85.3358 68.1608C85.3113 68.1385 85.2872 68.1156 85.2635 68.0919L84.5564 68.799ZM70.4143 54.6569L84.5564 68.799L85.2635 68.0919L71.1214 53.9498L70.4143 54.6569ZM70.4143 50.4143C69.2427 51.5858 69.2427 53.4853 70.4143 54.6569L71.1214 53.9498C70.3403 53.1687 70.3403 51.9024 71.1214 51.1214L70.4143 50.4143ZM74.6569 50.4143C73.4853 49.2427 71.5858 49.2427 70.4143 50.4143L71.1214 51.1214C71.9024 50.3403 73.1687 50.3403 73.9498 51.1214L74.6569 50.4143ZM85.3536 61.1109L74.6569 50.4143L73.9498 51.1214L84.6464 61.8181L85.3536 61.1109ZM84.5 52.5V61.4645H85.5V52.5H84.5ZM87.5 49.5C85.8432 49.5 84.5 50.8432 84.5 52.5H85.5C85.5 51.3954 86.3954 50.5 87.5 50.5V49.5ZM90.5 52.5C90.5 50.8432 89.1568 49.5 87.5 49.5V50.5C88.6046 50.5 89.5 51.3954 89.5 52.5H90.5ZM90.5 75.4065V52.5H89.5V75.4065H90.5ZM104.144 64.8922L89.7132 74.9969L90.2868 75.8161L104.718 65.7114L104.144 64.8922ZM108.323 65.629C107.372 64.2718 105.501 63.9419 104.144 64.8922L104.718 65.7114C105.623 65.0779 106.87 65.2978 107.503 66.2026L108.323 65.629ZM107.586 69.8072C108.943 68.8568 109.273 66.9863 108.323 65.629L107.503 66.2026C108.137 67.1074 107.917 68.3544 107.012 68.988L107.586 69.8072ZM91.2026 81.2787L107.586 69.8072L107.012 68.988L90.629 80.4595L91.2026 81.2787ZM90.1034 81.7568C90.4877 81.6756 90.8619 81.5172 91.2026 81.2787L90.629 80.4595C90.4006 80.6195 90.1516 80.7245 89.8966 80.7784L90.1034 81.7568ZM90.5 105.951V81.2676H89.5V105.951H90.5ZM127.5 66C127.5 87.1528 110.873 104.422 89.9754 105.451L90.0246 106.45C111.452 105.395 128.5 87.6887 128.5 66H127.5ZM88 26.5C109.815 26.5 127.5 44.1848 127.5 66H128.5C128.5 43.6325 110.368 25.5 88 25.5V26.5ZM85.0328 110.403C61.8398 108.876 43.5 89.5796 43.5 66H42.5C42.5 90.1099 61.252 109.84 84.9672 111.401L85.0328 110.403ZM85.5 147.5V110.902H84.5V147.5H85.5ZM87.5 149.5C86.3954 149.5 85.5 148.605 85.5 147.5H84.5C84.5 149.157 85.8432 150.5 87.5 150.5V149.5ZM89.5 147.5C89.5 148.605 88.6046 149.5 87.5 149.5V150.5C89.1568 150.5 90.5 149.157 90.5 147.5H89.5ZM89.5 110.956V147.5H90.5V110.956H89.5ZM132.5 66C132.5 89.9138 113.637 109.422 89.9782 110.457L90.0218 111.456C114.213 110.398 133.5 90.4515 133.5 66H132.5ZM88 21.5C112.577 21.5 132.5 41.4233 132.5 66H133.5C133.5 40.871 113.129 20.5 88 20.5V21.5ZM43.5 66C43.5 41.4233 63.4233 21.5 88 21.5V20.5C62.871 20.5 42.5 40.871 42.5 66H43.5Z" fill="white"/>
<path d="M5.9732 162.416C5.9732 163.184 6.25773 163.74 6.8268 164.087C7.39588 164.507 8.60825 164.94 10.4639 165.386C12.4186 165.856 13.8412 166.499 14.732 167.315C15.6474 168.132 16.1052 169.307 16.1052 170.841C16.1052 172.449 15.499 173.748 14.2866 174.738C13.099 175.728 11.5402 176.223 9.61031 176.223C6.81443 176.223 4.29072 175.233 2.03918 173.254L3.96907 170.953C5.84948 172.561 7.75464 173.365 9.68454 173.365C10.6495 173.365 11.4289 173.155 12.0227 172.734C12.6165 172.289 12.9134 171.72 12.9134 171.027C12.9134 170.334 12.6412 169.79 12.0969 169.394C11.5773 168.998 10.6371 168.639 9.27629 168.318C6.92577 167.773 5.29278 167.13 4.37732 166.388C3.3134 165.571 2.78144 164.322 2.78144 162.639C2.78144 161.006 3.37526 159.732 4.56289 158.816C5.75052 157.876 7.27217 157.406 9.12784 157.406C11.6268 157.406 13.767 158.136 15.5485 159.596L13.9155 161.897C13.3711 161.402 12.6412 161.006 11.7258 160.709C10.8103 160.388 9.90723 160.227 9.01651 160.227C8.10104 160.227 7.35876 160.425 6.78969 160.821C6.24536 161.192 5.9732 161.724 5.9732 162.416ZM32.6216 157.852C35.3432 157.852 37.335 158.384 38.5968 159.447C39.8834 160.487 40.5267 162.107 40.5267 164.309C40.5267 166.487 39.8834 168.095 38.5968 169.134C37.3102 170.148 35.3309 170.656 32.6587 170.656H29.4669V176H26.3865V157.852H32.6216ZM32.9927 167.909C34.6257 167.909 35.7638 167.6 36.4071 166.981C37.0752 166.363 37.4092 165.386 37.4092 164.049C37.4092 162.812 37.0257 161.934 36.2587 161.414C35.4917 160.895 34.2546 160.635 32.5473 160.635H29.4669V167.909H32.9927ZM53.2164 171.88L51.3979 176H48.1319L56.1484 157.852H59.4143L67.3937 176H64.1278L62.3092 171.88H53.2164ZM61.0845 169.023L57.7814 161.563L54.4783 169.023H61.0845ZM90.0218 157.852H93.0651V176H89.762L79.4816 162.751V176H76.4012V157.852H79.4816L90.0218 171.398V157.852ZM118.006 170.99L119.973 172.994C118.092 175.146 115.767 176.223 112.995 176.223C110.249 176.223 107.96 175.344 106.129 173.588C104.323 171.806 103.42 169.567 103.42 166.87C103.42 164.148 104.348 161.897 106.204 160.115C108.059 158.309 110.397 157.406 113.218 157.406C115.989 157.406 118.327 158.445 120.233 160.524L118.303 162.639C117.437 161.798 116.62 161.216 115.853 160.895C115.086 160.573 114.183 160.412 113.144 160.412C111.288 160.412 109.729 161.006 108.468 162.194C107.23 163.381 106.612 164.891 106.612 166.722C106.612 168.528 107.23 170.062 108.468 171.324C109.705 172.586 111.177 173.216 112.884 173.216C113.923 173.216 114.814 173.043 115.556 172.697C116.323 172.351 117.14 171.781 118.006 170.99ZM142.98 157.852V160.709H133.293V165.534H141.978V168.243H133.293V173.105H143.277V176H130.213V157.852H142.98ZM164.251 169.394L169.001 176H165.104L160.762 169.876H156.754V176H153.673V157.852H160.428C163.174 157.852 165.141 158.322 166.329 159.262C167.541 160.177 168.147 161.674 168.147 163.753C168.147 166.746 166.849 168.627 164.251 169.394ZM160.539 167.13C162.246 167.13 163.422 166.87 164.065 166.351C164.708 165.831 165.03 164.953 165.03 163.715C165.03 162.528 164.708 161.724 164.065 161.303C163.422 160.858 162.271 160.635 160.613 160.635H156.754V167.13H160.539Z" fill="white"/>
</svg>
